<?xml version="1.0" ?><svg viewBox="0 0 32 32" xmlns="http://www.w3.org/2000/svg"><defs><style>.cls-1{fill:none;stroke:#000;stroke-linejoin:round;stroke-width:2px;}</style></defs><title/><g data-name="265-Keyboard" id="_265-Keyboard"><rect class="cls-1" height="18" width="30" x="1" y="7"/><line class="cls-1" x1="7" x2="5" y1="11" y2="11"/><line class="cls-1" x1="11" x2="9" y1="11" y2="11"/><line class="cls-1" x1="15" x2="13" y1="11" y2="11"/><line class="cls-1" x1="19" x2="17" y1="11" y2="11"/><line class="cls-1" x1="23" x2="21" y1="11" y2="11"/><line class="cls-1" x1="27" x2="25" y1="11" y2="11"/><line class="cls-1" x1="7" x2="5" y1="16" y2="16"/><line class="cls-1" x1="11" x2="9" y1="16" y2="16"/><line class="cls-1" x1="15" x2="13" y1="16" y2="16"/><line class="cls-1" x1="19" x2="17" y1="16" y2="16"/><line class="cls-1" x1="23" x2="21" y1="16" y2="16"/><line class="cls-1" x1="27" x2="25" y1="16" y2="16"/><line class="cls-1" x1="7" x2="5" y1="21" y2="21"/><line class="cls-1" x1="23" x2="9" y1="21" y2="21"/><line class="cls-1" x1="27" x2="25" y1="21" y2="21"/></g></svg>