<svg fill="none" viewBox="0 0 24 24" height="24" width="24" xmlns="http://www.w3.org/2000/svg">
<path xmlns="http://www.w3.org/2000/svg" d="M3 5C3 3.89543 3.89543 3 5 3H9H15H16.5858C17.1162 3 17.6249 3.21071 18 3.58579L20.7071 6.29289C20.8946 6.48043 21 6.73478 21 7V19C21 20.1046 20.1046 21 19 21H15H9H5C3.89543 21 3 20.1046 3 19V5ZM9 19H15V13H9V19ZM17 19H19V7.41421L17 5.41421V7C17 8.10457 16.1046 9 15 9H9C7.89543 9 7 8.10457 7 7V5H5V19H7V13C7 11.8954 7.89543 11 9 11H15C16.1046 11 17 11.8954 17 13V19ZM9 5V7H15V5H9Z" fill="#0D0D0D"></path>
</svg>