<?xml version="1.0" encoding="utf-8"?>
<!-- Generator: Adobe Illustrator 24.0.2, SVG Export Plug-In . SVG Version: 6.00 Build 0)  -->
<svg version="1.1" id="Layer_1" xmlns="http://www.w3.org/2000/svg" xmlns:xlink="http://www.w3.org/1999/xlink" x="0px" y="0px"
	 viewBox="0 0 32 32" style="enable-background:new 0 0 32 32;" xml:space="preserve">
<style type="text/css">
	.st0{fill:#4B8BBE;stroke:#000000;stroke-width:0.3866;stroke-miterlimit:10;}
	.st1{fill:url(#SVGID_1_);stroke:#000000;stroke-width:0.3866;stroke-miterlimit:10;}
	.st2{fill:#FFD43B;stroke:#000000;stroke-width:0.3866;stroke-miterlimit:10;}
	.st3{fill:url(#SVGID_2_);stroke:#000000;stroke-width:0.3866;stroke-miterlimit:10;}
	.st4{fill:none;stroke:#000000;stroke-width:2;stroke-miterlimit:10;}
	.st5{fill:none;}
</style>
<g>
	<path class="st0" d="M1.1,3.6c0-1.9,1.5-3.4,3.4-3.4h22.8c1.9,0,3.4,1.5,3.4,3.4H1.1z"/>
	
		<linearGradient id="SVGID_1_" gradientUnits="userSpaceOnUse" x1="1.1" y1="815.2897" x2="30.9" y2="815.2897" gradientTransform="matrix(1 0 0 1 0 -807.8898)">
		<stop  offset="0" style="stop-color:#FFFFFF"/>
		<stop  offset="0.3726" style="stop-color:#FDFDFD"/>
		<stop  offset="0.5069" style="stop-color:#F6F6F6"/>
		<stop  offset="0.6026" style="stop-color:#EBEBEB"/>
		<stop  offset="0.68" style="stop-color:#DADADA"/>
		<stop  offset="0.7463" style="stop-color:#C4C4C4"/>
		<stop  offset="0.805" style="stop-color:#A8A8A8"/>
		<stop  offset="0.8581" style="stop-color:#888888"/>
		<stop  offset="0.9069" style="stop-color:#626262"/>
		<stop  offset="0.9523" style="stop-color:#373737"/>
		<stop  offset="0.9926" style="stop-color:#090909"/>
		<stop  offset="1" style="stop-color:#000000"/>
	</linearGradient>
	<path class="st1" d="M30.9,3.6H1.1v4.2c0,1.9,1.5,3.4,3.4,3.4h22.8c1.9,0,3.4-1.5,3.4-3.4V3.6H30.9z"/>
</g>
<g>
	<path class="st2" d="M1.1,24.2c0-1.9,1.5-3.4,3.4-3.4h22.8c1.9,0,3.4,1.5,3.4,3.4H1.1z"/>
	
		<linearGradient id="SVGID_2_" gradientUnits="userSpaceOnUse" x1="1.1" y1="835.8898" x2="30.9" y2="835.8898" gradientTransform="matrix(1 0 0 1 0 -807.8898)">
		<stop  offset="0" style="stop-color:#FFFFFF"/>
		<stop  offset="0.3726" style="stop-color:#FDFDFD"/>
		<stop  offset="0.5069" style="stop-color:#F6F6F6"/>
		<stop  offset="0.6026" style="stop-color:#EBEBEB"/>
		<stop  offset="0.68" style="stop-color:#DADADA"/>
		<stop  offset="0.7463" style="stop-color:#C4C4C4"/>
		<stop  offset="0.805" style="stop-color:#A8A8A8"/>
		<stop  offset="0.8581" style="stop-color:#888888"/>
		<stop  offset="0.9069" style="stop-color:#626262"/>
		<stop  offset="0.9523" style="stop-color:#373737"/>
		<stop  offset="0.9926" style="stop-color:#090909"/>
		<stop  offset="1" style="stop-color:#000000"/>
	</linearGradient>
	<path class="st3" d="M30.9,24.2H1.1v4.2c0,1.9,1.5,3.4,3.4,3.4h22.8c1.9,0,3.4-1.5,3.4-3.4v-4.2H30.9z"/>
</g>
<g>
	<g>
		<line class="st4" x1="9.5" y1="20.7" x2="9.5" y2="15.5"/>
		<g>
			<polygon points="12.5,16.4 9.5,11.2 6.5,16.4 			"/>
		</g>
	</g>
</g>
<g>
	<g>
		<line class="st4" x1="22.5" y1="11.2" x2="22.5" y2="16.4"/>
		<g>
			<polygon points="19.5,15.5 22.5,20.7 25.5,15.5 			"/>
		</g>
	</g>
</g>
<rect x="2.1" y="4.7" class="st5" width="14.7" height="2.7"/>
</svg>
