<?xml version="1.0" encoding="UTF-8"?><svg xmlns="http://www.w3.org/2000/svg" xmlns:xlink="http://www.w3.org/1999/xlink" viewBox="0 0 50 50" version="1.1"><path d="M2.813 0A1 1 0 0 0 2 1v36c0 .55.45 1 1 1h29.625l13.719 11.75c.297.258.71.316 1.07.156A.996.996 0 0 0 48 49V1c0-.55-.45-1-1-1H2.812zM4 2h42v44.844L33.656 36.25A.988.988 0 0 0 33 36H4zm21 6c-2.75 0-5 2.25-5 5s2.25 5 5 5 5-2.25 5-5-2.25-5-5-5zm0 2c1.668 0 3 1.332 3 3s-1.332 3-3 3-3-1.332-3-3 1.332-3 3-3zm-11 4c-2.2 0-4 1.8-4 4s1.8 4 4 4 4-1.8 4-4-1.8-4-4-4zm0 8c-2.102 0-3.629.66-4.594 1.5C8.441 24.34 8 25.195 8 26.094V27c0 .55.45 1 1 1h32c.55 0 1-.45 1-1v-.906c0-.899-.441-1.754-1.406-2.594-.965-.84-2.492-1.5-4.594-1.5-1.445 0-2.59.336-3.469.75a7.61 7.61 0 0 0-.75-.688C30.324 20.919 28.094 20 25 20s-5.324.918-6.781 2.063a7.611 7.611 0 0 0-.75.687c-.88-.414-2.024-.75-3.469-.75zm22 0c2.2 0 4-1.8 4-4s-1.8-4-4-4-4 1.8-4 4 1.8 4 4 4zm-22-6c1.117 0 2 .883 2 2s-.883 2-2 2-2-.883-2-2 .883-2 2-2zm22 0c1.117 0 2 .883 2 2s-.883 2-2 2-2-.883-2-2 .883-2 2-2zm-11 6c2.703 0 4.469.77 5.563 1.625.546.43.925.902 1.156 1.281.23.38.281.692.281.688V26H18v-.406c0 .004.05-.309.281-.688.23-.379.61-.851 1.157-1.281C20.53 22.77 22.297 22 25 22zm-11 2c.965 0 1.691.172 2.281.406-.18.39-.281.778-.281 1.188V26h-5.938c.024-.027.122-.535.657-1 .586-.512 1.582-1 3.281-1zm22 0c1.7 0 2.695.488 3.281 1 .535.465.633.973.657 1H34v-.406c0-.41-.102-.797-.281-1.188.59-.234 1.316-.406 2.281-.406z" id="surface1"/><metadata><rdf:RDF xmlns:rdf="http://www.w3.org/1999/02/22-rdf-syntax-ns#" xmlns:rdfs="http://www.w3.org/2000/01/rdf-schema#" xmlns:dc="http://purl.org/dc/elements/1.1/"><rdf:Description about="https://iconscout.com/legal#licenses" dc:title="google,groups" dc:description="google,groups" dc:publisher="Iconscout" dc:date="2017-12-09" dc:format="image/svg+xml" dc:language="en"><dc:creator><rdf:Bag><rdf:li>Icons8</rdf:li></rdf:Bag></dc:creator></rdf:Description></rdf:RDF></metadata></svg>