<?xml version="1.0" encoding="utf-8"?>
<!-- Generator: Adobe Illustrator 24.0.1, SVG Export Plug-In . SVG Version: 6.00 Build 0)  -->
<svg version="1.1" id="Layer_1" xmlns="http://www.w3.org/2000/svg" xmlns:xlink="http://www.w3.org/1999/xlink" x="0px" y="0px"
	 viewBox="0 0 32 32" style="enable-background:new 0 0 32 32;" xml:space="preserve">
<style type="text/css">
	.st0{fill:#4B8BBE;stroke:#000000;stroke-width:0.3866;stroke-miterlimit:10;}
	.st1{fill:#FFFFFF;stroke:#000000;stroke-width:0.3866;stroke-miterlimit:10;}
	.st2{fill:#FFD43B;stroke:#000000;stroke-width:0.3866;stroke-miterlimit:10;}
	.st3{fill:none;stroke:#000000;stroke-width:2;stroke-miterlimit:10;}
	.st4{fill:none;}
	.st5{font-family:'Arial-BoldMT';}
	.st6{font-size:3px;}
</style>
<g>
	<path class="st0" d="M1.1,3.6c0-1.9,1.5-3.4,3.4-3.4h22.8c1.9,0,3.4,1.5,3.4,3.4H1.1z"/>
	<path class="st1" d="M30.9,3.6H1.1v4.2c0,1.9,1.5,3.4,3.4,3.4h22.8c1.9,0,3.4-1.5,3.4-3.4V3.6H30.9z"/>
</g>
<g>
	<path class="st2" d="M1.1,24.2c0-1.9,1.5-3.4,3.4-3.4h22.8c1.9,0,3.4,1.5,3.4,3.4H1.1z"/>
	<path class="st1" d="M30.9,24.2H1.1v4.2c0,1.9,1.5,3.4,3.4,3.4h22.8c1.9,0,3.4-1.5,3.4-3.4v-4.2H30.9z"/>
</g>
<g>
	<g>
		<line class="st3" x1="9.5" y1="20.7" x2="9.5" y2="15.5"/>
		<g>
			<polygon points="12.5,16.4 9.5,11.2 6.5,16.4 			"/>
		</g>
	</g>
</g>
<g>
	<g>
		<line class="st3" x1="22.5" y1="11.2" x2="22.5" y2="16.4"/>
		<g>
			<polygon points="19.5,15.5 22.5,20.7 25.5,15.5 			"/>
		</g>
	</g>
</g>
<rect x="2.1" y="4.7" class="st4" width="15.6" height="3.1"/>
<text transform="matrix(1 0 0 1 2.1224 6.8555)" class="st5 st6">pyControl</text>
</svg>
